<svg xmlns="http://www.w3.org/2000/svg" width="512" height="512" viewBox="0 0 512 512">
  <rect fill="#f6fff5" width="100%" height="100%"/>
  <g transform="translate(80,60)">
    <path d="M160 0 C 70 0 0 70 0 160 C 0 280 160 400 160 400 C 160 400 320 280 320 160 C 320 70 250 0 160 0z" fill="#4CAF50"/>
    <path d="M160 40 C 130 40 110 60 110 90 C 110 140 160 200 160 200 C 160 200 210 140 210 90 C 210 60 190 40 160 40z" fill="#A5D6A7"/>
  </g>
  <text x="50%" y="460" font-family="Arial, Helvetica, sans-serif" font-size="36" fill="#2e7d32" text-anchor="middle">Eco Aware Health</text>
</svg>